<svg xmlns="http://www.w3.org/2000/svg" xmlns:xlink="http://www.w3.org/1999/xlink" width="2000" zoomAndPan="magnify" viewBox="0 0 1500 1499.999933" height="2000" preserveAspectRatio="xMidYMid meet" version="1.0"><defs><clipPath id="037a5fb487"><path d="M 91.914062 342 L 1408 342 L 1408 1158.664062 L 91.914062 1158.664062 Z M 91.914062 342 " clip-rule="nonzero"/></clipPath><clipPath id="1b02c6d9a5"><path d="M 2 3 L 1315 3 L 1315 816.664062 L 2 816.664062 Z M 2 3 " clip-rule="nonzero"/></clipPath><clipPath id="d2e5838208"><rect x="0" width="1317" y="0" height="817"/></clipPath></defs><g clip-path="url(#037a5fb487)"><g transform="matrix(1, 0, 0, 1, 91, 342)"><g clip-path="url(#d2e5838208)"><g clip-path="url(#1b02c6d9a5)"><path fill="#ffffff" d="M 1300.605469 285.453125 C 1300.605469 285.453125 704.664062 13.585938 612.847656 6.390625 C 521.015625 -0.808594 520.117188 4.589844 443.597656 19.902344 C 367.085938 35.203125 202.796875 87.410156 191.996094 92.359375 C 181.199219 97.324219 177.148438 122.96875 183.898438 122.96875 C 190.648438 122.96875 270.765625 121.617188 267.617188 128.816406 C 264.46875 136.027344 169.953125 153.128906 164.089844 156.726562 C 158.242188 160.328125 154.125 173.988281 164.917969 173.539062 C 175.714844 173.089844 266.308594 162.441406 268.066406 168.875 C 268.542969 170.59375 268.378906 178.925781 256.460938 183.246094 C 223.710938 195.109375 158.382812 201.96875 153.027344 205.230469 C 145.71875 209.6875 140.945312 221.386719 143.648438 222.738281 C 146.34375 224.085938 246.726562 220.933594 252.574219 222.738281 C 258.421875 224.535156 260.863281 241.796875 260.863281 241.796875 C 260.863281 241.796875 129.441406 264.761719 121.328125 271.507812 C 113.226562 278.257812 123.125 285.007812 123.125 285.007812 C 123.125 285.007812 341.882812 272.859375 353.582031 276.007812 C 365.28125 279.152344 362.128906 288.605469 362.128906 288.605469 C 362.128906 288.605469 192.890625 306.613281 149.234375 316.964844 C 105.578125 327.3125 102.875 339.472656 102.875 342.625 C 102.875 345.773438 323.417969 342.625 344.582031 344.875 C 365.726562 347.125 362.128906 357.019531 362.128906 357.019531 C 362.128906 357.019531 152.382812 377.722656 123.574219 384.933594 C 94.777344 392.132812 95.230469 405.183594 95.230469 405.183594 C 95.230469 405.183594 258.167969 403.832031 298.222656 406.53125 C 338.285156 409.230469 348.632812 420.941406 349.082031 424.539062 C 349.53125 428.140625 162.285156 442.539062 133.941406 445.691406 C 105.578125 448.835938 92.527344 455.585938 88.929688 459.648438 C 85.328125 463.699219 84.878906 466.398438 84.878906 466.398438 C 84.878906 466.398438 275.261719 469.546875 301.375 470 C 327.488281 470.449219 329.734375 489.347656 329.734375 489.347656 C 329.734375 489.347656 115.296875 502.492188 98.1875 507.441406 C 81.089844 512.390625 78.117188 524.910156 78.117188 524.910156 C 78.117188 524.910156 291.570312 535.296875 297.882812 538.898438 C 312.878906 547.460938 255.800781 552.820312 230.742188 553.160156 C 173.367188 553.9375 72.960938 554.9375 69.117188 552.367188 C 63.71875 548.765625 61.917969 543.367188 61.917969 543.367188 C 61.917969 543.367188 66.417969 371.421875 100.628906 260.703125 C 134.839844 149.976562 162.734375 118.464844 162.734375 118.464844 C 162.734375 118.464844 153.585938 126.484375 140.578125 143.9375 C 140.578125 143.9375 69.117188 145.925781 38.957031 172.488281 C 8.808594 199.035156 3.410156 273.304688 2.515625 276.453125 C 1.597656 279.601562 52.6875 285.453125 57.636719 281.398438 C 62.585938 277.355469 74.75 202.414062 72.714844 199.035156 C 70.699219 195.667969 63.949219 206.015625 58.988281 224.246094 C 54.035156 242.476562 51.570312 260.023438 45.488281 264.523438 C 39.410156 269.023438 23.441406 264.753906 23.441406 264.753906 C 23.441406 264.753906 31.988281 209.164062 48.417969 187.785156 C 64.851562 166.40625 108.0625 170.222656 110.761719 170.90625 C 112.53125 171.351562 114.902344 177.667969 116.308594 181.921875 C 98.992188 213.292969 80.574219 257.210938 68.21875 315.609375 C 38.507812 456.035156 37.160156 549.214844 38.507812 553.265625 C 39.859375 557.316406 47.070312 577.5625 74.519531 578.464844 C 101.980469 579.378906 266.71875 586.578125 303.625 575.761719 C 340.535156 564.96875 393.054688 509.28125 397.554688 492.167969 C 402.050781 475.070312 422.585938 305.027344 457.695312 188.902344 C 488.140625 88.195312 541.15625 17.226562 653.804688 51.394531 C 733.925781 75.710938 1261.441406 289.054688 1300.605469 285.453125 Z M 251.417969 666.234375 C 251.417969 666.234375 71.367188 664.476562 66.421875 669.738281 C 61.46875 675.015625 136.636719 684.371094 198.746094 685.539062 C 260.863281 686.714844 247.367188 684.371094 251.417969 666.234375 Z M 255.386719 634.984375 C 255.386719 634.984375 75.339844 633.128906 70.386719 638.675781 C 65.4375 644.226562 140.605469 654.085938 202.714844 655.3125 C 264.832031 656.550781 251.320312 654.085938 255.386719 634.984375 Z M 53.820312 654.097656 C 53.820312 654.097656 51.789062 626.855469 42.574219 609.308594 C 33.34375 591.761719 21.859375 594.910156 21.859375 594.910156 C 21.859375 594.910156 16.914062 598.960938 17.132812 601.878906 C 17.363281 604.808594 31.992188 619.4375 37.609375 636.085938 C 43.238281 652.75 46.621094 666.246094 53.820312 654.097656 Z M 400.539062 670.691406 C 400.539062 670.691406 400.539062 583.8125 400.539062 580.210938 C 400.539062 576.609375 355.082031 592.152344 314.570312 622.503906 C 274.0625 652.871094 275.863281 671.464844 281.265625 673.269531 C 286.664062 675.078125 326.273438 644.648438 347.421875 634.273438 C 368.582031 623.894531 378.476562 622.027344 378.476562 622.027344 C 378.476562 622.027344 378.476562 702.597656 400.539062 670.691406 Z M 622.0625 669.84375 C 622.0625 673.078125 624.699219 675.695312 627.929688 675.695312 C 631.15625 675.695312 633.773438 673.078125 633.773438 669.84375 L 633.773438 303.628906 C 837.820312 339.832031 1238.261719 408.195312 1279.667969 394.835938 L 633.773438 250.957031 L 633.773438 217.226562 C 832.503906 263.339844 1286.871094 367.101562 1286.871094 351.628906 C 1286.871094 351.628906 680.308594 167.296875 584.347656 144.988281 C 594.042969 130.316406 603.738281 121.304688 613.511719 118.46875 C 647.726562 108.574219 1272.460938 332.726562 1290.917969 309.535156 C 1290.917969 309.535156 678.78125 91.691406 640.972656 83.59375 C 603.167969 75.492188 573.457031 75.492188 541.042969 126.796875 C 508.648438 178.105469 472.871094 267.402344 449.457031 437.539062 C 431.824219 565.691406 432.34375 652.75 433.109375 695.042969 C 433.953125 740.925781 410.324219 751.257812 372.597656 749.445312 C 293.367188 745.644531 54.785156 733.386719 45.035156 723.632812 C 33.335938 711.921875 29.285156 682.675781 29.285156 682.675781 C 29.285156 682.675781 24.105469 681.542969 23.207031 687.394531 C 22.304688 693.242188 21.636719 729.9375 40.085938 742.53125 C 58.535156 755.128906 132.800781 758.746094 132.800781 758.746094 C 132.800781 758.746094 41.429688 780.34375 33.785156 786.640625 C 26.136719 792.941406 44.132812 800.152344 44.132812 800.152344 C 44.132812 800.152344 382.15625 816.800781 415.464844 816.800781 C 448.777344 816.800781 718.84375 760.992188 727.390625 757.84375 C 735.9375 754.679688 737.742188 745.234375 737.742188 745.234375 C 737.742188 745.234375 740.4375 750.183594 755.75 751.980469 C 771.050781 753.78125 790.847656 749.730469 802.113281 745.683594 C 813.359375 741.628906 824.160156 724.53125 824.160156 724.53125 C 824.160156 724.53125 832.722656 731.730469 839.023438 731.730469 C 845.324219 731.730469 1164.894531 669.160156 1170.746094 667.808594 C 1176.59375 666.460938 1178.84375 661.0625 1178.84375 661.0625 C 1178.84375 661.0625 1184.929688 664.660156 1196.175781 664.660156 C 1207.421875 664.660156 1217.105469 661.292969 1220.035156 659.496094 C 1222.953125 657.695312 1226.550781 650.03125 1226.550781 650.03125 C 1226.550781 650.03125 1291.824219 639.914062 1298.355469 636.316406 C 1304.871094 632.699219 1272.460938 630.683594 1272.460938 630.683594 C 1272.460938 630.683594 1316.351562 609.976562 1314.550781 607.054688 C 1312.753906 604.125 1238.035156 612.671875 1238.035156 612.671875 L 1237.363281 589.039062 C 1237.363281 589.039062 1241.183594 543.582031 1233.53125 532.335938 C 1225.882812 521.089844 1202.472656 515.90625 1186.722656 534.136719 C 1170.960938 552.363281 1161.296875 630.449219 1161.296875 630.449219 L 848.472656 677.492188 C 848.472656 677.492188 868.273438 557.3125 826.859375 538.863281 C 785.449219 520.402344 753.054688 543.816406 732.34375 587.472656 C 711.644531 631.132812 707.597656 701.796875 707.597656 701.796875 L 484.554688 734.179688 C 484.554688 734.179688 479.9375 607.050781 490.84375 483.980469 C 516.011719 484.089844 562.523438 484.457031 576.140625 485.738281 C 595.109375 487.539062 602.613281 483.488281 602.613281 483.488281 L 603.683594 343.511719 C 603.683594 343.511719 604.910156 328.203125 597.128906 324.601562 C 591.441406 321.96875 546.308594 313.574219 522.449219 309.234375 C 524.738281 300.859375 527.015625 292.71875 529.296875 284.84375 C 546.667969 288.007812 579.507812 293.96875 622.0625 301.546875 Z M 622.5 214.605469 C 622.226562 215.289062 622.0625 216.039062 622.0625 216.816406 L 622.0625 248.355469 L 545.945312 231.394531 C 549.84375 219.941406 553.730469 209.289062 557.601562 199.460938 C 571.304688 202.679688 593.800781 207.941406 622.5 214.605469 Z M 1222.050781 474.050781 L 664.824219 435.34375 C 664.824219 435.34375 649.921875 463.238281 666.570312 471.800781 C 683.214844 480.347656 1218 490.699219 1222.050781 474.050781 Z M 1212.371094 552.367188 C 1204.054688 552.367188 1197.308594 574.128906 1197.308594 600.976562 C 1197.308594 627.820312 1204.054688 649.582031 1212.371094 649.582031 C 1220.703125 649.582031 1227.449219 627.820312 1227.449219 600.976562 C 1227.449219 574.128906 1220.703125 552.367188 1212.371094 552.367188 Z M 786.351562 564.066406 C 769.199219 564.066406 755.304688 598.539062 755.304688 641.035156 C 755.304688 683.550781 769.199219 718.007812 786.351562 718.007812 C 803.5 718.007812 817.410156 683.550781 817.410156 641.035156 C 817.410156 598.539062 803.5 564.066406 786.351562 564.066406 Z M 451.710938 88.757812 C 451.710938 88.757812 341.4375 90.558594 315.773438 108.570312 C 290.128906 126.566406 286.523438 243.148438 286.523438 243.148438 C 286.523438 243.148438 318.023438 250.578125 333.78125 237.53125 C 342.007812 230.710938 346.3125 202.269531 351.359375 172.980469 C 355.980469 146.160156 361.679688 118.015625 361.679688 118.015625 C 361.679688 118.015625 439.101562 114.417969 451.710938 88.757812 Z M 374.375 142.328125 L 371.769531 161.679688 C 371.769531 161.679688 397.457031 160.5625 402.269531 155.378906 C 404.46875 153.019531 407.273438 149.40625 400.5 146.921875 C 392.453125 143.980469 374.375 142.328125 374.375 142.328125 Z M 366.550781 191.835938 L 363.929688 211.1875 C 363.929688 211.1875 389.632812 210.070312 394.445312 204.886719 C 396.640625 202.527344 399.4375 198.929688 392.671875 196.433594 C 384.628906 193.488281 366.550781 191.835938 366.550781 191.835938 Z M 366.550781 191.835938 " fill-opacity="1" fill-rule="evenodd"/></g></g></g></g></svg>