<svg xmlns="http://www.w3.org/2000/svg" xmlns:xlink="http://www.w3.org/1999/xlink" width="2000" zoomAndPan="magnify" viewBox="0 0 1500 1499.999933" height="2000" preserveAspectRatio="xMidYMid meet" version="1.0"><defs><clipPath id="9d7e8c785b"><path d="M 94 345 L 1407 345 L 1407 1158.664062 L 94 1158.664062 Z M 94 345 " clip-rule="nonzero"/></clipPath></defs><g clip-path="url(#9d7e8c785b)"><path fill="#ffffff" d="M 108.386719 627.453125 C 108.386719 627.453125 704.328125 355.585938 796.144531 348.390625 C 887.976562 341.191406 888.875 346.589844 965.394531 361.902344 C 1041.90625 377.203125 1206.195312 429.410156 1216.996094 434.359375 C 1227.792969 439.324219 1231.84375 464.96875 1225.09375 464.96875 C 1218.34375 464.96875 1138.226562 463.617188 1141.375 470.816406 C 1144.523438 478.027344 1239.039062 495.128906 1244.902344 498.726562 C 1250.75 502.328125 1254.871094 515.988281 1244.074219 515.539062 C 1233.277344 515.089844 1142.683594 504.441406 1140.925781 510.875 C 1140.449219 512.59375 1140.613281 520.925781 1152.53125 525.246094 C 1185.28125 537.109375 1250.609375 543.96875 1255.964844 547.230469 C 1263.273438 551.6875 1268.046875 563.386719 1265.347656 564.738281 C 1262.648438 566.085938 1162.265625 562.933594 1156.417969 564.738281 C 1150.570312 566.535156 1148.128906 583.796875 1148.128906 583.796875 C 1148.128906 583.796875 1279.550781 606.761719 1287.664062 613.507812 C 1295.765625 620.257812 1285.867188 627.007812 1285.867188 627.007812 C 1285.867188 627.007812 1067.109375 614.859375 1055.410156 618.007812 C 1043.710938 621.152344 1046.863281 630.605469 1046.863281 630.605469 C 1046.863281 630.605469 1216.101562 648.613281 1259.757812 658.964844 C 1303.417969 669.3125 1306.117188 681.472656 1306.117188 684.625 C 1306.117188 687.773438 1085.574219 684.625 1064.410156 686.875 C 1043.265625 689.125 1046.863281 699.019531 1046.863281 699.019531 C 1046.863281 699.019531 1256.609375 719.722656 1285.417969 726.933594 C 1314.214844 734.132812 1313.761719 747.183594 1313.761719 747.183594 C 1313.761719 747.183594 1150.824219 745.832031 1110.769531 748.53125 C 1070.707031 751.230469 1060.359375 762.941406 1059.910156 766.539062 C 1059.460938 770.140625 1246.707031 784.539062 1275.054688 787.691406 C 1303.417969 790.835938 1316.464844 797.585938 1320.0625 801.648438 C 1323.664062 805.699219 1324.113281 808.398438 1324.113281 808.398438 C 1324.113281 808.398438 1133.730469 811.546875 1107.617188 812 C 1081.503906 812.449219 1079.257812 831.347656 1079.257812 831.347656 C 1079.257812 831.347656 1293.695312 844.492188 1310.804688 849.441406 C 1327.902344 854.390625 1330.878906 866.910156 1330.878906 866.910156 C 1330.878906 866.910156 1117.421875 877.296875 1111.109375 880.898438 C 1096.113281 889.460938 1153.191406 894.820312 1178.25 895.160156 C 1235.625 895.9375 1336.03125 896.9375 1339.875 894.367188 C 1345.273438 890.765625 1347.074219 885.367188 1347.074219 885.367188 C 1347.074219 885.367188 1342.574219 713.421875 1308.363281 602.703125 C 1274.152344 491.976562 1246.257812 460.464844 1246.257812 460.464844 C 1246.257812 460.464844 1255.40625 468.484375 1268.414062 485.9375 C 1268.414062 485.9375 1339.875 487.925781 1370.035156 514.488281 C 1400.183594 541.035156 1405.582031 615.304688 1406.476562 618.453125 C 1407.394531 621.601562 1356.304688 627.453125 1351.355469 623.398438 C 1346.40625 619.355469 1334.242188 544.414062 1336.277344 541.035156 C 1338.292969 537.667969 1345.042969 548.015625 1350.003906 566.246094 C 1354.957031 584.476562 1357.425781 602.023438 1363.503906 606.523438 C 1369.585938 611.023438 1385.550781 606.753906 1385.550781 606.753906 C 1385.550781 606.753906 1377.007812 551.164062 1360.574219 529.785156 C 1344.140625 508.40625 1300.929688 512.222656 1298.230469 512.90625 C 1296.460938 513.351562 1294.089844 519.667969 1292.683594 523.921875 C 1310 555.292969 1328.417969 599.210938 1340.773438 657.609375 C 1370.484375 798.035156 1371.832031 891.214844 1370.484375 895.265625 C 1369.132812 899.316406 1361.921875 919.5625 1334.472656 920.464844 C 1307.011719 921.378906 1142.273438 928.578125 1105.367188 917.761719 C 1068.457031 906.96875 1015.9375 851.28125 1011.441406 834.167969 C 1006.941406 817.070312 986.40625 647.027344 951.296875 530.902344 C 920.851562 430.195312 867.835938 359.226562 755.1875 393.394531 C 675.066406 417.710938 147.550781 631.054688 108.386719 627.453125 Z M 1157.574219 1008.234375 C 1157.574219 1008.234375 1337.625 1006.476562 1342.570312 1011.738281 C 1347.523438 1017.015625 1272.355469 1026.371094 1210.246094 1027.539062 C 1148.128906 1028.714844 1161.625 1026.371094 1157.574219 1008.234375 Z M 1153.605469 976.984375 C 1153.605469 976.984375 1333.65625 975.128906 1338.605469 980.675781 C 1343.554688 986.226562 1268.386719 996.085938 1206.277344 997.3125 C 1144.160156 998.550781 1157.671875 996.085938 1153.605469 976.984375 Z M 1355.171875 996.097656 C 1355.171875 996.097656 1357.203125 968.855469 1366.421875 951.308594 C 1375.648438 933.761719 1387.132812 936.910156 1387.132812 936.910156 C 1387.132812 936.910156 1392.078125 940.960938 1391.859375 943.878906 C 1391.628906 946.808594 1377 961.4375 1371.382812 978.085938 C 1365.753906 994.75 1362.371094 1008.246094 1355.171875 996.097656 Z M 1008.453125 1012.691406 C 1008.453125 1012.691406 1008.453125 925.8125 1008.453125 922.210938 C 1008.453125 918.609375 1053.910156 934.152344 1094.421875 964.503906 C 1134.929688 994.871094 1133.128906 1013.464844 1127.730469 1015.269531 C 1122.328125 1017.078125 1082.71875 986.648438 1061.574219 976.273438 C 1040.410156 965.894531 1030.515625 964.027344 1030.515625 964.027344 C 1030.515625 964.027344 1030.515625 1044.597656 1008.453125 1012.691406 Z M 786.929688 1011.84375 C 786.929688 1015.078125 784.296875 1017.695312 781.0625 1017.695312 C 777.835938 1017.695312 775.21875 1015.078125 775.21875 1011.84375 L 775.21875 645.628906 C 571.171875 681.832031 170.730469 750.195312 129.324219 736.835938 L 775.21875 592.957031 L 775.21875 559.226562 C 576.488281 605.339844 122.121094 709.101562 122.121094 693.628906 C 122.121094 693.628906 728.683594 509.296875 824.644531 486.988281 C 814.949219 472.316406 805.253906 463.304688 795.480469 460.46875 C 761.265625 450.574219 136.53125 674.726562 118.074219 651.535156 C 118.074219 651.535156 730.210938 433.691406 768.019531 425.59375 C 805.828125 417.492188 835.535156 417.492188 867.949219 468.796875 C 900.34375 520.105469 936.121094 609.402344 959.535156 779.539062 C 977.167969 907.691406 976.648438 994.75 975.882812 1037.042969 C 975.039062 1082.925781 998.667969 1093.257812 1036.394531 1091.445312 C 1115.625 1087.644531 1354.207031 1075.386719 1363.957031 1065.632812 C 1375.65625 1053.921875 1379.707031 1024.675781 1379.707031 1024.675781 C 1379.707031 1024.675781 1384.886719 1023.542969 1385.785156 1029.394531 C 1386.6875 1035.242188 1387.355469 1071.9375 1368.90625 1084.53125 C 1350.457031 1097.128906 1276.191406 1100.746094 1276.191406 1100.746094 C 1276.191406 1100.746094 1367.5625 1122.34375 1375.207031 1128.640625 C 1382.855469 1134.941406 1364.859375 1142.152344 1364.859375 1142.152344 C 1364.859375 1142.152344 1026.835938 1158.800781 993.527344 1158.800781 C 960.214844 1158.800781 690.148438 1102.992188 681.601562 1099.84375 C 673.054688 1096.679688 671.253906 1087.234375 671.253906 1087.234375 C 671.253906 1087.234375 668.554688 1092.183594 653.242188 1093.980469 C 637.941406 1095.78125 618.144531 1091.730469 606.878906 1087.683594 C 595.632812 1083.628906 584.832031 1066.53125 584.832031 1066.53125 C 584.832031 1066.53125 576.269531 1073.730469 569.96875 1073.730469 C 563.667969 1073.730469 244.097656 1011.160156 238.246094 1009.808594 C 232.398438 1008.460938 230.148438 1003.0625 230.148438 1003.0625 C 230.148438 1003.0625 224.0625 1006.660156 212.816406 1006.660156 C 201.570312 1006.660156 191.886719 1003.292969 188.957031 1001.496094 C 186.039062 999.695312 182.441406 992.03125 182.441406 992.03125 C 182.441406 992.03125 117.167969 981.914062 110.636719 978.316406 C 104.121094 974.699219 136.53125 972.683594 136.53125 972.683594 C 136.53125 972.683594 92.640625 951.976562 94.441406 949.054688 C 96.238281 946.125 170.957031 954.671875 170.957031 954.671875 L 171.628906 931.039062 C 171.628906 931.039062 167.808594 885.582031 175.460938 874.335938 C 183.109375 863.089844 206.519531 857.90625 222.269531 876.136719 C 238.03125 894.363281 247.699219 972.449219 247.699219 972.449219 L 560.519531 1019.492188 C 560.519531 1019.492188 540.722656 899.3125 582.132812 880.863281 C 623.542969 862.402344 655.9375 885.816406 676.648438 929.472656 C 697.347656 973.132812 701.394531 1043.796875 701.394531 1043.796875 L 924.4375 1076.179688 C 924.4375 1076.179688 929.054688 949.050781 918.148438 825.980469 C 892.980469 826.089844 846.46875 826.457031 832.851562 827.738281 C 813.882812 829.539062 806.378906 825.488281 806.378906 825.488281 L 805.308594 685.511719 C 805.308594 685.511719 804.082031 670.203125 811.863281 666.601562 C 817.554688 663.96875 862.683594 655.574219 886.542969 651.234375 C 884.253906 642.859375 881.976562 634.71875 879.695312 626.84375 C 862.324219 630.007812 829.484375 635.96875 786.929688 643.546875 Z M 786.492188 556.605469 C 786.765625 557.289062 786.929688 558.039062 786.929688 558.816406 L 786.929688 590.355469 L 863.046875 573.394531 C 859.148438 561.941406 855.261719 551.289062 851.390625 541.460938 C 837.6875 544.679688 815.191406 549.941406 786.492188 556.605469 Z M 186.941406 816.050781 L 744.167969 777.34375 C 744.167969 777.34375 759.070312 805.238281 742.425781 813.800781 C 725.777344 822.347656 190.992188 832.699219 186.941406 816.050781 Z M 196.621094 894.367188 C 204.9375 894.367188 211.683594 916.128906 211.683594 942.976562 C 211.683594 969.820312 204.9375 991.582031 196.621094 991.582031 C 188.289062 991.582031 181.542969 969.820312 181.542969 942.976562 C 181.542969 916.128906 188.289062 894.367188 196.621094 894.367188 Z M 622.640625 906.066406 C 639.792969 906.066406 653.6875 940.539062 653.6875 983.035156 C 653.6875 1025.550781 639.792969 1060.007812 622.640625 1060.007812 C 605.492188 1060.007812 591.582031 1025.550781 591.582031 983.035156 C 591.582031 940.539062 605.492188 906.066406 622.640625 906.066406 Z M 957.28125 430.757812 C 957.28125 430.757812 1067.554688 432.558594 1093.21875 450.570312 C 1118.863281 468.566406 1122.46875 585.148438 1122.46875 585.148438 C 1122.46875 585.148438 1090.96875 592.578125 1075.210938 579.53125 C 1066.984375 572.710938 1062.679688 544.269531 1057.632812 514.980469 C 1053.011719 488.160156 1047.3125 460.015625 1047.3125 460.015625 C 1047.3125 460.015625 969.894531 456.417969 957.28125 430.757812 Z M 1034.617188 484.328125 L 1037.222656 503.679688 C 1037.222656 503.679688 1011.535156 502.5625 1006.722656 497.378906 C 1004.523438 495.019531 1001.71875 491.40625 1008.492188 488.921875 C 1016.539062 485.980469 1034.617188 484.328125 1034.617188 484.328125 Z M 1042.441406 533.835938 L 1045.0625 553.1875 C 1045.0625 553.1875 1019.359375 552.070312 1014.546875 546.886719 C 1012.351562 544.527344 1009.554688 540.929688 1016.320312 538.433594 C 1024.363281 535.488281 1042.441406 533.835938 1042.441406 533.835938 Z M 1042.441406 533.835938 " fill-opacity="1" fill-rule="evenodd"/></g></svg>